<svg xmlns="http://www.w3.org/2000/svg" xmlns:xlink="http://www.w3.org/1999/xlink" width="1080" zoomAndPan="magnify" viewBox="0 0 810 809.999993" height="1080" preserveAspectRatio="xMidYMid meet" version="1.0"><defs><clipPath id="1ae2014417"><path d="M 405 0 C 181.324219 0 0 181.324219 0 405 C 0 628.675781 181.324219 810 405 810 C 628.675781 810 810 628.675781 810 405 C 810 181.324219 628.675781 0 405 0 Z M 405 0 " clip-rule="nonzero"/></clipPath><clipPath id="66c0144807"><path d="M 358 109.460938 L 452 109.460938 L 452 234 L 358 234 Z M 358 109.460938 " clip-rule="nonzero"/></clipPath><clipPath id="fbe2141301"><path d="M 156.132812 156 L 328 156 L 328 265 L 156.132812 265 Z M 156.132812 156 " clip-rule="nonzero"/></clipPath><clipPath id="06caf399e1"><path d="M 482 156 L 654.132812 156 L 654.132812 265 L 482 265 Z M 482 156 " clip-rule="nonzero"/></clipPath><clipPath id="f116e6cc30"><path d="M 358 576 L 452 576 L 452 700.460938 L 358 700.460938 Z M 358 576 " clip-rule="nonzero"/></clipPath><clipPath id="4aafbd1605"><path d="M 482 544 L 654.132812 544 L 654.132812 654 L 482 654 Z M 482 544 " clip-rule="nonzero"/></clipPath><clipPath id="3399f7a34b"><path d="M 156.132812 544 L 328 544 L 328 654 L 156.132812 654 Z M 156.132812 544 " clip-rule="nonzero"/></clipPath></defs><g clip-path="url(#1ae2014417)"><rect x="-81" width="972" fill="#ffffff" y="-80.999999" height="971.999992" fill-opacity="1"/></g><path fill="#000000" d="M 327.320312 296.097656 L 327.320312 327.199219 C 327.320312 335.789062 320.359375 342.753906 311.757812 342.753906 C 303.15625 342.753906 296.195312 335.789062 296.195312 327.199219 L 296.195312 296.097656 L 280.632812 296.097656 C 263.472656 296.097656 249.507812 310.046875 249.507812 327.199219 L 249.507812 358.304688 C 249.507812 375.460938 263.472656 389.410156 280.632812 389.410156 L 529.632812 389.410156 C 546.789062 389.410156 560.757812 375.460938 560.757812 358.304688 L 560.757812 327.199219 C 560.757812 310.046875 546.789062 296.097656 529.632812 296.097656 L 389.570312 296.097656 L 389.570312 327.199219 C 389.570312 335.789062 382.609375 342.753906 374.007812 342.753906 C 365.40625 342.753906 358.445312 335.789062 358.445312 327.199219 L 358.445312 296.097656 Z M 327.320312 296.097656 " fill-opacity="1" fill-rule="nonzero"/><path fill="#000000" d="M 482.945312 513.828125 L 482.945312 482.722656 C 482.945312 474.132812 489.90625 467.171875 498.507812 467.171875 C 507.109375 467.171875 514.070312 474.132812 514.070312 482.722656 L 514.070312 513.828125 L 529.632812 513.828125 C 546.789062 513.828125 560.757812 499.878906 560.757812 482.722656 L 560.757812 451.617188 C 560.757812 434.464844 546.789062 420.515625 529.632812 420.515625 L 280.632812 420.515625 C 263.472656 420.515625 249.507812 434.464844 249.507812 451.617188 L 249.507812 482.722656 C 249.507812 499.878906 263.472656 513.828125 280.632812 513.828125 L 420.695312 513.828125 L 420.695312 482.722656 C 420.695312 474.132812 427.65625 467.171875 436.257812 467.171875 C 444.859375 467.171875 451.820312 474.132812 451.820312 482.722656 L 451.820312 513.828125 Z M 482.945312 513.828125 " fill-opacity="1" fill-rule="nonzero"/><g clip-path="url(#66c0144807)"><path fill="#000000" d="M 389.570312 199.917969 L 389.570312 218.335938 C 389.570312 226.925781 396.53125 233.886719 405.132812 233.886719 C 413.734375 233.886719 420.695312 226.925781 420.695312 218.335938 L 420.695312 199.917969 C 438.769531 193.476562 451.820312 176.375 451.820312 156.125 C 451.820312 130.398438 430.878906 109.46875 405.132812 109.46875 C 379.386719 109.46875 358.445312 130.398438 358.445312 156.125 C 358.445312 176.375 371.496094 193.476562 389.570312 199.917969 Z M 389.570312 199.917969 " fill-opacity="1" fill-rule="nonzero"/></g><g clip-path="url(#fbe2141301)"><path fill="#000000" d="M 202.820312 249.441406 C 223.082031 249.441406 240.195312 236.398438 246.640625 218.335938 L 288.414062 218.335938 C 292.699219 218.335938 296.195312 221.820312 296.195312 226.113281 L 296.195312 249.441406 C 296.195312 258.027344 303.15625 264.992188 311.757812 264.992188 C 320.359375 264.992188 327.320312 258.027344 327.320312 249.441406 L 327.320312 226.113281 C 327.320312 204.675781 309.871094 187.230469 288.414062 187.230469 L 246.640625 187.230469 C 240.195312 169.167969 223.082031 156.125 202.820312 156.125 C 177.074219 156.125 156.132812 177.054688 156.132812 202.785156 C 156.132812 228.511719 177.074219 249.441406 202.820312 249.441406 Z M 202.820312 249.441406 " fill-opacity="1" fill-rule="nonzero"/></g><g clip-path="url(#06caf399e1)"><path fill="#000000" d="M 498.507812 264.992188 C 507.109375 264.992188 514.070312 258.027344 514.070312 249.441406 L 514.070312 226.113281 C 514.070312 221.820312 517.566406 218.335938 521.851562 218.335938 L 563.625 218.335938 C 570.070312 236.398438 587.183594 249.441406 607.445312 249.441406 C 633.191406 249.441406 654.132812 228.511719 654.132812 202.785156 C 654.132812 177.054688 633.191406 156.125 607.445312 156.125 C 587.183594 156.125 570.070312 169.167969 563.625 187.230469 L 521.851562 187.230469 C 500.390625 187.230469 482.945312 204.675781 482.945312 226.113281 L 482.945312 249.441406 C 482.945312 258.027344 489.90625 264.992188 498.507812 264.992188 Z M 498.507812 264.992188 " fill-opacity="1" fill-rule="nonzero"/></g><g clip-path="url(#f116e6cc30)"><path fill="#000000" d="M 420.695312 610.007812 L 420.695312 591.589844 C 420.695312 583 413.734375 576.035156 405.132812 576.035156 C 396.53125 576.035156 389.570312 583 389.570312 591.589844 L 389.570312 610.007812 C 371.496094 616.449219 358.445312 633.550781 358.445312 653.796875 C 358.445312 679.527344 379.386719 700.453125 405.132812 700.453125 C 430.878906 700.453125 451.820312 679.527344 451.820312 653.796875 C 451.820312 633.550781 438.769531 616.449219 420.695312 610.007812 Z M 420.695312 610.007812 " fill-opacity="1" fill-rule="nonzero"/></g><g clip-path="url(#4aafbd1605)"><path fill="#000000" d="M 607.445312 560.484375 C 587.183594 560.484375 570.070312 573.523438 563.625 591.589844 L 521.851562 591.589844 C 517.566406 591.589844 514.070312 588.101562 514.070312 583.8125 L 514.070312 560.484375 C 514.070312 551.894531 507.109375 544.933594 498.507812 544.933594 C 489.90625 544.933594 482.945312 551.894531 482.945312 560.484375 L 482.945312 583.8125 C 482.945312 605.25 500.390625 622.691406 521.851562 622.691406 L 563.625 622.691406 C 570.070312 640.757812 587.183594 653.796875 607.445312 653.796875 C 633.191406 653.796875 654.132812 632.867188 654.132812 607.140625 C 654.132812 581.414062 633.191406 560.484375 607.445312 560.484375 Z M 607.445312 560.484375 " fill-opacity="1" fill-rule="nonzero"/></g><g clip-path="url(#3399f7a34b)"><path fill="#000000" d="M 311.757812 544.933594 C 303.15625 544.933594 296.195312 551.894531 296.195312 560.484375 L 296.195312 583.8125 C 296.195312 588.101562 292.699219 591.589844 288.414062 591.589844 L 246.640625 591.589844 C 240.195312 573.523438 223.082031 560.484375 202.820312 560.484375 C 177.074219 560.484375 156.132812 581.414062 156.132812 607.140625 C 156.132812 632.867188 177.074219 653.796875 202.820312 653.796875 C 223.082031 653.796875 240.195312 640.757812 246.640625 622.691406 L 288.414062 622.691406 C 309.871094 622.691406 327.320312 605.25 327.320312 583.8125 L 327.320312 560.484375 C 327.320312 551.894531 320.359375 544.933594 311.757812 544.933594 Z M 311.757812 544.933594 " fill-opacity="1" fill-rule="nonzero"/></g></svg>